<svg xmlns="http://www.w3.org/2000/svg" viewBox="0 0 20 20">
  <path fill="currentColor" d="M15,9.25 L10.75,9.25 L10.75,5 L9.25,5 L9.25,9.25 L5,9.25 L5,10.75 L9.25,10.75 L9.25,14.9990234 L10.75,14.9990234 L10.75,10.75 L15,10.75 L15,9.25 Z M10,20 C4.4863281,20 0,15.5136719 0,10 C0,4.4858398 4.4863281,0 10,0 C15.5136719,0 20,4.4858398 20,10 C20,15.5136719 15.5136719,20 10,20 Z M10,1.5 C5.3134766,1.5 1.5,5.3129883 1.5,10 C1.5,14.6865234 5.3134766,18.5 10,18.5 C14.6865234,18.5 18.5,14.6865234 18.5,10 C18.5,5.3129883 14.6865234,1.5 10,1.5 Z"/>
</svg>
