<svg xmlns="http://www.w3.org/2000/svg" viewBox="0 0 20 20">
  <path fill="currentColor" fill-rule="nonzero" d="M13.0634766,10.4321289 C14.6132813,9.4199219 15.6425782,7.6669922 15.6425782,5.6738281 C15.6425781,2.5454102 13.1123047,0 10,0 C6.8876953,0 4.3574219,2.5454102 4.3574219,5.6738281 C4.3574219,7.6669922 5.3867188,9.4199219 6.9365235,10.4321289 C2.9179688,11.7363281 0,15.5302734 0,20 L1.4921875,20 C1.4921875,15.2832031 5.3085937,11.4453125 10,11.4453125 C14.6914063,11.4453125 18.5078125,15.2832031 18.5078125,20 L20,20 C20,15.5302734 17.0820312,11.7363281 13.0634766,10.4321289 Z M5.8486328,5.6738281 C5.8486328,3.3725586 7.7109375,1.5 10,1.5 C12.2890625,1.5 14.1513672,3.3725586 14.1513672,5.6738281 C14.1513672,7.9750976 12.2890625,9.8476562 10,9.8476562 C7.7109375,9.8476562 5.8486328,7.9750977 5.8486328,5.6738281 Z"/>
</svg>
